<mxfile
  host="Electron" 
  agent="Mozilla/5.0 (Macintosh; Intel Mac OS X 10_15_7) AppleWebKit/537.36 (KHTML, like Gecko) draw.io/25.0.2 Chrome/128.0.6613.186 Electron/32.2.5 Safari/537.36" 
  version="25.0.2"
  >
  <diagram
    name="-"
    >
    <mxGraphModel
      grid="1" 
      gridSize="10" 
      guides="1" 
      tooltips="1" 
      connect="1" 
      arrows="1" 
      fold="1" 
      page="1" 
      pageScale="1" 
      pageWidth="1" 
      pageHeight="1" 
      math="0" 
      shadow="0"
      >
      <root>
        <mxCell
          id="page"
          />
        <mxCell
          id="root" 
          parent="page"
          />
        <mxCell
          style="verticalAlign=top;aspect=fixed;align=center;spacingLeft=5;spacingRight=5;spacingBottom=5;strokeColor=none;" 
          id="shape_" 
          parent="root" 
          value=" " 
          vertex="1"
          >
          <mxGeometry
            as="geometry" 
            width="62" 
            height="62" 
            x="0" 
            y="0"
            />
          </mxCell>
        <mxCell
          style="sketch=0;html=1;verticalAlign=top;labelPosition=center;verticalLabelPosition=bottom;align=center;spacingTop=-6;fontSize=11;fontStyle=1;fontColor=#999999;shape=image;aspect=fixed;imageAspect=0;image=data:image/svg+xml,PHN2ZyB4bWxucz0iaHR0cDovL3d3dy53My5vcmcvMjAwMC9zdmciIGhlaWdodD0iMzUxLjkwMDM5MDYyNSIgdmlld0JveD0iMCAwIDM0NS41ODM5ODQzNzUgMzUxLjkwMDM5MDYyNSIgcHJlc2VydmVBc3BlY3RSYXRpbz0ieE1pZFlNaWQgbWVldCIgd2lkdGg9IjM0NS41ODM5ODQzNzUiIHZlcnNpb249IjEuMSIgaWQ9InN2Zzk4NyIgem9vbUFuZFBhbj0ibWFnbmlmeSI+JiN4YTsgIDxwYXRoIGQ9Ik0gMTcwLjIwODk4LDAgQyAxMjkuNDk4MjYsMCA4Ny41NDQyODYsMTkuMjU1NjM5IDU1LjIxNjc5Nyw1MC4wNDg4MjkgMjIuODg5MzA3LDgwLjg0MjAxOSAwLDEyMy44MDMxMSAwLDE3MS45Mjk2OSBjIDAsNjYuODM5OSA0MC4yNzM3NjUsMTE5LjY4Nzk4IDk2Ljc4NTE1NiwxNTUuMzc4OSBsIC0xMy42OTMzNTksMjQuNTkxOCA3Ni43NDYwOTMsLTYuOTA0MyAtMzYuOTUxMTcsLTY0LjU2NDQ1IC0xNC4xNjAxNiwyNS40Mjk2OSBDIDU3LjkyNDMxMywyNzMuNjU3OTkgMjQuNTY4MzU5LDIyOC41MjE0NCAyNC41NjgzNTksMTcxLjkyOTY5IGMgMCwtNDAuMzA3NjQgMTkuMzI4NzMzLC03Ny4xNzAxMzEgNDcuNTkxNzk3LC0xMDQuMDkxODAxIDI4LjI2MzA2NCwtMjYuOTIxNjcgNjUuMjczNzU0LC00My4yNzE0OCA5OC4wNDg4MjQsLTQzLjI3MTQ4IHoiIHN0eWxlPSJjb2xvcjojMDAwMDAwO29wYWNpdHk6MTtmaWxsOiM0Mjg1ZjQ7ZmlsbC1vcGFjaXR5OjE7LWlua3NjYXBlLXN0cm9rZTpub25lIi8+JiN4YTsgIDxwYXRoIGQ9Im0gMTcwLjIwODk4LDAgdiAyNC41NjY0MDkgYyA4OS44NDc4NiwwIDE1MC44MDg1OSw3NC42NjUyNyAxNTAuODA4NTksMTQ2LjUwMTk1MSBoIDI0LjU2NjQxIEMgMzQ1LjU4Mzk4LDg1LjQwOTAxOSAyNzMuNjIyMzksMCAxNzAuMjA4OTgsMCBaIiBzdHlsZT0iY29sb3I6IzAwMDAwMDtvcGFjaXR5OjE7ZmlsbDojNjY5ZGY2O2ZpbGwtb3BhY2l0eToxOy1pbmtzY2FwZS1zdHJva2U6bm9uZSIvPiYjeGE7ICA8cGF0aCBkPSJtIDMyMS4wMTc1NywxNzEuMDY4MzYgYyAwLDczLjM0NDc1IC00My4zNTQ2MiwxMjguMzA0NzUgLTEzNC4zMzU5MywxNDcuMDQyOTcgbCA0Ljk1NTA4LDI0LjA2MDU1IEMgMjkwLjg1NzkxLDMyMS43MzY2IDM0NS41ODM5OCwyNTQuNjQ5NTIgMzQ1LjU4Mzk4LDE3MS4wNjgzNiBaIiBzdHlsZT0iY29sb3I6IzAwMDAwMDtvcGFjaXR5OjE7ZmlsbDojYWVjYmZhO2ZpbGwtb3BhY2l0eToxOy1pbmtzY2FwZS1zdHJva2U6bm9uZSIvPiYjeGE7ICA8cGF0aCBkPSJtIDgwLjk3Mjg5NiwxODMuNjIyNyB2IDEyLjI4MzIgNTMuMzQzNzUgSCAyNjUuMTg1NzggViAxODMuNjIyNyBaIG0gMjQuNTY2NDA0LDI0LjU2NjQxIGggOTUuNDU1MDggdiAxNi40OTQxNCBIIDEwNS41MzkzIFogbSAxMjAuMDIzNDQsMCBoIDE1LjA1NjY0IHYgMTYuNDk0MTQgSCAyMjUuNTYyNzQgWiBNIDgwLjk3Mjg5Nyw5Mi43NDQxMzkgdiAxMi4yODMyMDEgNTMuMzQzNzUgSCAyNjUuMTg1NzggViA5Mi43NDQxMzkgWiBNIDEwNS41MzkzLDExNy4zMTA1NSBoIDk1LjQ1NTA4IHYgMTYuNDk0MTQgSCAxMDUuNTM5MyBaIG0gMTIwLjAyMzQ0LDAgaCAxNS4wNTY2NCB2IDE2LjQ5NDE0IGggLTE1LjA1NjY0IHoiIHN0eWxlPSJjb2xvcjojMDAwMDAwO29wYWNpdHk6MTtmaWxsOiNhZWNiZmE7ZmlsbC1vcGFjaXR5OjE7LWlua3NjYXBlLXN0cm9rZTpub25lIi8+JiN4YTs8L3N2Zz4;strokeColor=none;" 
          id="backup_and_dr_" 
          parent="shape_" 
          value=" " 
          vertex="1"
          >
          <mxGeometry
            width="42" 
            height="42" 
            as="geometry" 
            x="10" 
            y="10"
            />
          </mxCell>
        </root>
      </mxGraphModel>
    </diagram>
  </mxfile>